<svg width="106" height="106" viewBox="0 0 106 106" fill="none" xmlns="http://www.w3.org/2000/svg">
<path d="M52.953 26.4767C54.1234 26.4767 55.2458 26.0118 56.0733 25.1842C56.9009 24.3567 57.3658 23.2343 57.3658 22.064V13.2384C57.3658 12.0681 56.9009 10.9457 56.0733 10.1181C55.2458 9.2906 54.1234 8.82568 52.953 8.82568C51.7827 8.82568 50.6603 9.2906 49.8328 10.1181C49.0052 10.9457 48.5403 12.0681 48.5403 13.2384V22.064C48.5403 23.2343 49.0052 24.3567 49.8328 25.1842C50.6603 26.0118 51.7827 26.4767 52.953 26.4767Z" fill="#4B2F2F"/>
<path d="M92.668 48.5405H83.8424C82.6721 48.5405 81.5497 49.0054 80.7222 49.833C79.8946 50.6605 79.4297 51.7829 79.4297 52.9533C79.4297 54.1236 79.8946 55.246 80.7222 56.0736C81.5497 56.9011 82.6721 57.366 83.8424 57.366H92.668C93.8383 57.366 94.9607 56.9011 95.7883 56.0736C96.6158 55.246 97.0807 54.1236 97.0807 52.9533C97.0807 51.7829 96.6158 50.6605 95.7883 49.833C94.9607 49.0054 93.8383 48.5405 92.668 48.5405Z" fill="#4B2F2F"/>
<path d="M26.4765 52.9533C26.4765 51.7829 26.0116 50.6605 25.184 49.833C24.3565 49.0054 23.2341 48.5405 22.0637 48.5405H13.2382C12.0679 48.5405 10.9455 49.0054 10.1179 49.833C9.29035 50.6605 8.82544 51.7829 8.82544 52.9533C8.82544 54.1236 9.29035 55.246 10.1179 56.0736C10.9455 56.9011 12.0679 57.366 13.2382 57.366H22.0637C23.2341 57.366 24.3565 56.9011 25.184 56.0736C26.0116 55.246 26.4765 54.1236 26.4765 52.9533Z" fill="#4B2F2F"/>
<path d="M27.4471 22.0636C26.5869 21.2503 25.4389 20.8119 24.2555 20.845C23.0721 20.8781 21.9503 21.38 21.1369 22.2402C20.3235 23.1004 19.8851 24.2484 19.9183 25.4318C19.9514 26.6152 20.4532 27.737 21.3134 28.5504L27.6678 34.6841C28.0942 35.0959 28.5992 35.4175 29.1527 35.6298C29.7061 35.8421 30.2967 35.9407 30.8891 35.9197C31.4835 35.9174 32.0713 35.7951 32.6173 35.56C33.1633 35.325 33.6561 34.982 34.0663 34.5517C34.8882 33.725 35.3495 32.6065 35.3495 31.4408C35.3495 30.275 34.8882 29.1565 34.0663 28.3298L27.4471 22.0636Z" fill="#4B2F2F"/>
<path d="M75.0167 35.9201C76.1528 35.9156 77.2434 35.473 78.0615 34.6845L84.4158 28.5508C85.191 27.7408 85.6288 26.6662 85.6404 25.5451C85.6519 24.424 85.2363 23.3406 84.478 22.5149C83.7196 21.6891 82.6754 21.183 81.5574 21.0992C80.4394 21.0155 79.3315 21.3605 78.4586 22.064L72.1042 28.3301C71.2824 29.1569 70.821 30.2753 70.821 31.4411C70.821 32.6069 71.2824 33.7253 72.1042 34.5521C72.8683 35.3584 73.9083 35.8469 75.0167 35.9201Z" fill="#4B2F2F"/>
<path d="M52.953 79.4297C51.7827 79.4297 50.6603 79.8946 49.8328 80.7222C49.0052 81.5497 48.5403 82.6721 48.5403 83.8424V92.668C48.5403 93.8383 49.0052 94.9607 49.8328 95.7882C50.6603 96.6158 51.7827 97.0807 52.953 97.0807C54.1234 97.0807 55.2458 96.6158 56.0733 95.7882C56.9009 94.9607 57.3658 93.8383 57.3658 92.668V83.8424C57.3658 82.6721 56.9009 81.5497 56.0733 80.7222C55.2458 79.8946 54.1234 79.4297 52.953 79.4297Z" fill="#4B2F2F"/>
<path d="M78.2381 71.2226C77.3955 70.4092 76.2643 69.9639 75.0933 69.9846C73.9223 70.0053 72.8075 70.4903 71.9941 71.3329C71.1807 72.1756 70.7354 73.3068 70.7561 74.4778C70.7767 75.6488 71.2618 76.7636 72.1044 77.577L78.4588 83.8431C79.2768 84.6316 80.3674 85.0741 81.5036 85.0787C82.0948 85.0821 82.6808 84.9667 83.2266 84.7393C83.7724 84.5119 84.2669 84.1771 84.6808 83.7548C85.0944 83.3446 85.4227 82.8566 85.6467 82.3188C85.8707 81.7811 85.986 81.2043 85.986 80.6218C85.986 80.0392 85.8707 79.4625 85.6467 78.9247C85.4227 78.387 85.0944 77.8989 84.6808 77.4887L78.2381 71.2226Z" fill="#4B2F2F"/>
<path d="M27.6677 71.2225L21.3133 77.3563C20.8997 77.7665 20.5715 78.2546 20.3474 78.7923C20.1234 79.33 20.0081 79.9068 20.0081 80.4893C20.0081 81.0719 20.1234 81.6486 20.3474 82.1864C20.5715 82.7241 20.8997 83.2122 21.3133 83.6224C21.7272 84.0447 22.2217 84.3794 22.7675 84.6068C23.3133 84.8343 23.8993 84.9497 24.4905 84.9462C25.5783 84.9555 26.6312 84.5626 27.4471 83.843L33.8015 77.7093C34.6441 76.8959 35.1291 75.7811 35.1498 74.6101C35.1705 73.4391 34.7252 72.3079 33.9118 71.4652C33.0984 70.6226 31.9836 70.1376 30.8126 70.1169C29.6416 70.0962 28.5104 70.5415 27.6677 71.3549V71.2225Z" fill="#4B2F2F"/>
<path d="M52.9531 35.3022C49.462 35.3022 46.0494 36.3375 43.1467 38.277C40.244 40.2165 37.9816 42.9732 36.6456 46.1985C35.3096 49.4238 34.9601 52.9729 35.6412 56.3968C36.3222 59.8208 38.0033 62.9659 40.4719 65.4344C42.9404 67.903 46.0855 69.5841 49.5095 70.2651C52.9335 70.9462 56.4825 70.5967 59.7078 69.2607C62.9331 67.9247 65.6898 65.6623 67.6293 62.7597C69.5689 59.857 70.6041 56.4443 70.6041 52.9533C70.6041 48.2719 68.7444 43.7823 65.4342 40.4721C62.124 37.1619 57.6344 35.3022 52.9531 35.3022Z" fill="#4B2F2F"/>
</svg>
