<svg width="94" height="94" viewBox="0 0 94 94" fill="none" xmlns="http://www.w3.org/2000/svg">
<path d="M48.036 85.9177H47.6455C42.2894 85.8769 36.9952 84.7678 32.0731 82.6554C27.1509 80.5431 22.6997 77.4699 18.9801 73.6158C12.0826 66.2397 8.16179 56.5701 7.97427 46.4732C7.78676 36.3763 11.3459 26.5679 17.9647 18.9407C22.2289 14.1619 27.5896 10.4898 33.5862 8.24003C34.2859 7.97079 35.0483 7.90863 35.7823 8.06098C36.5164 8.21334 37.1911 8.57376 37.7258 9.09921C38.2211 9.60426 38.5699 10.2343 38.735 10.9222C38.9001 11.61 38.8752 12.3298 38.6631 13.0046C36.5228 18.8663 36.0988 25.2168 37.4407 31.311C38.7827 37.4053 41.835 42.9903 46.2395 47.4108C50.6851 51.8018 56.2834 54.8438 62.3863 56.1846C68.4893 57.5255 74.8471 57.1103 80.7239 54.9872C81.4234 54.741 82.1785 54.699 82.9009 54.8662C83.6234 55.0333 84.2834 55.4027 84.8036 55.9312C85.3238 56.4596 85.6829 57.1252 85.8387 57.8502C85.9946 58.5752 85.9408 59.3296 85.6837 60.0251C83.6887 65.3509 80.5721 70.1856 76.5451 74.2016C72.7993 77.9363 68.3523 80.8939 63.4597 82.9046C58.5672 84.9152 53.3255 85.9392 48.036 85.9177Z" fill="#C68888"/>
</svg>
